# xmcd CD database file
#
# Track frame offsets:
#	150
#	27250
#	55682
#	92970
#	117632
#	143997
#	168787
#	199102
#	228940
#	270350
#	291095
#
# Disc length: 4231 seconds
#
# Revision: 0
# Processed by: cddbd v1.5.1PL2 Copyright (c) Steve Scherf et al.
# Submitted via: CDex 1.51
#
DISCID=9710850b
DTITLE=Various Artist - viva la musica latina live at manhattan cener
DYEAR=2000
DGENRE=Salsa
TTITLE0=ove como va - tito puente
TTITLE1=ran kan kan - tito puente
TTITLE2=mujeres - tony swing
TTITLE3=cinderella - tony swing
TTITLE4=esa mujer - tony vega
TTITLE5=ni tu ni yo - sergio vargas
TTITLE6=picao - jose alberto
TTITLE7=clavado en un bar - jose alberto
TTITLE8=la paella - jose alberto
TTITLE9=para darte mi vida - milly quezada
TTITLE10=cuando la brisa llega - tony tuntun
EXTD=YEAR: 2000
EXTT0=
EXTT1=
EXTT2=
EXTT3=
EXTT4=
EXTT5=
EXTT6=
EXTT7=
EXTT8=
EXTT9=
EXTT10=
PLAYORDER=
